<?xml version="1.0" encoding="UTF-8" standalone="no" ?>
<!DOCTYPE svg PUBLIC "-//W3C//DTD SVG 1.1//EN" "http://www.w3.org/Graphics/SVG/1.1/DTD/svg11.dtd">
<svg xmlns="http://www.w3.org/2000/svg" xmlns:xlink="http://www.w3.org/1999/xlink" version="1.1" width="500" height="500" viewBox="0 0 500 500" xml:space="preserve">
<desc>Created with Fabric.js 4.6.0</desc>
<defs>
</defs>
<g transform="matrix(1 0 0 1 90.15 75.89)" id="GclpPDF3SD2X8YMnSU3mk"  >
<path style="stroke: rgb(0,0,0); stroke-width: 1; stroke-dasharray: none; stroke-linecap: butt; stroke-dashoffset: 0; stroke-linejoin: miter; stroke-miterlimit: 4; fill: rgb(255,255,255); fill-rule: nonzero; opacity: 1;" vector-effect="non-scaling-stroke"  transform=" translate(0, 0)" d="M 0 0" stroke-linecap="round" />
</g>
<g transform="matrix(1 0 0 1 89.15 0.28)" id="m4HjPqYoyv2TlJ2J0pR5o"  >
<path style="stroke: rgb(0,0,0); stroke-width: 1; stroke-dasharray: none; stroke-linecap: butt; stroke-dashoffset: 0; stroke-linejoin: miter; stroke-miterlimit: 4; fill: rgb(255,255,255); fill-rule: nonzero; opacity: 1;" vector-effect="non-scaling-stroke"  transform=" translate(0, 0)" d="M 0 0" stroke-linecap="round" />
</g>
<g transform="matrix(1 0 0 0.87 250 278.64)" id="cCmqgLX4dYhWc9QRk76IP"  >
<path style="stroke: rgb(0,0,0); stroke-width: 4; stroke-dasharray: none; stroke-linecap: butt; stroke-dashoffset: 0; stroke-linejoin: miter; stroke-miterlimit: 4; fill: rgb(17,17,17); fill-rule: nonzero; opacity: 1;" vector-effect="non-scaling-stroke"  transform=" translate(0, 0)" d="M -125 -246.63405 L -125 240.70738999999998 L -125 240.70738999999998 C -125 243.00733999999997 -123.84233 245.09960999999998 -122.03015 246.07482999999996 C -120.21798000000001 247.05004999999997 -118.07856000000001 246.73208999999997 -116.54178 245.25915999999995 L -5.981099999999998 139.29208999999994 L -5.981099999999998 139.29208999999994 C -2.5168699999999977 135.97178999999994 2.5168700000000026 135.97178999999994 5.981100000000001 139.29208999999994 L 116.54178 245.25915999999995 L 116.54178 245.25915999999995 C 118.07856 246.73208999999994 120.21798 247.05004999999994 122.03015 246.07482999999996 C 123.84232 245.09960999999996 125 243.00733999999997 125 240.70738999999998 L 125 -246.63405 z" stroke-linecap="round" />
</g>
<g transform="matrix(1.63 0 0 1.63 250 227.49)" id="reToCyXXWyA2E-bwpVcp3"  >
<path style="stroke: rgb(0,0,0); stroke-width: 4; stroke-dasharray: none; stroke-linecap: butt; stroke-dashoffset: 0; stroke-linejoin: miter; stroke-miterlimit: 4; fill: rgb(199,197,191); fill-rule: nonzero; opacity: 1;" vector-effect="non-scaling-stroke"  transform=" translate(0, 0)" d="M -1.68664 -41.99229 C -1.38313 -42.650299999999994 -0.7246499999999999 -43.071729999999995 -0.000009999999999843467 -43.071729999999995 C 0.7246300000000001 -43.071729999999995 1.38311 -42.65031 1.6866200000000002 -41.99229 L 13.19961 -17.032179999999997 L 13.19961 -17.032179999999997 C 13.76328 -15.810139999999997 14.92139 -14.968719999999998 16.25781 -14.810269999999997 L 43.55399 -11.573869999999998 L 43.55399 -11.573869999999998 C 44.27359 -11.488549999999998 44.87787 -10.992529999999999 45.10179 -10.303359999999998 C 45.325720000000004 -9.614189999999997 45.1284 -8.857709999999997 44.59638 -8.365719999999998 L 24.415610000000004 10.296880000000003 L 24.415610000000004 10.296880000000003 C 23.427560000000003 11.210600000000003 22.985210000000006 12.572040000000003 23.247480000000003 13.892010000000003 L 28.604470000000003 40.852320000000006 L 28.604470000000003 40.852320000000006 C 28.745690000000003 41.56306000000001 28.460680000000004 42.291050000000006 27.874440000000003 42.71698000000001 C 27.288200000000003 43.14291000000001 26.507770000000004 43.189020000000006 25.875450000000004 42.83507000000001 L 1.890070000000005 29.40908000000001 L 1.890070000000005 29.40908000000001 C 0.715750000000005 28.75175000000001 -0.715749999999995 28.75175000000001 -1.8900699999999948 29.40908000000001 L -25.875449999999994 42.83507000000001 L -25.875449999999994 42.83507000000001 C -26.507769999999994 43.18901000000001 -27.288189999999993 43.14291000000001 -27.874439999999993 42.71698000000001 C -28.460679999999993 42.291050000000006 -28.745699999999992 41.56307 -28.604469999999992 40.852320000000006 L -23.247479999999992 13.892010000000006 L -23.247479999999992 13.892010000000006 C -22.985199999999992 12.572040000000007 -23.427559999999993 11.210600000000007 -24.415609999999994 10.296880000000005 L -44.596379999999996 -8.365719999999996 L -44.596379999999996 -8.365719999999996 C -45.1284 -8.857709999999996 -45.325709999999994 -9.614189999999995 -45.101789999999994 -10.303359999999996 C -44.87785999999999 -10.992529999999997 -44.27358999999999 -11.488549999999996 -43.55398999999999 -11.573869999999996 L -16.257809999999992 -14.810269999999996 L -16.257809999999992 -14.810269999999996 C -14.921399999999991 -14.968719999999996 -13.763279999999991 -15.810139999999995 -13.199609999999993 -17.032179999999997 z" stroke-linecap="round" />
</g>
</svg>